<svg xmlns="http://www.w3.org/2000/svg" version="1.1" style="font-family:Lato, &#x27;Helvetica Neue&#x27;, Helvetica, Arial, &#x27;Liberation Sans&#x27;, sans-serif;font-size:18px;background-color:white;text-rendering:geometricPrecision;-webkit-font-smoothing:antialiased" width="850" height="788.5" viewBox="0 0 850 788.5"><defs><style>@import url(https://ourworldindata.org/fonts.css)</style></defs><defs><pattern id="noDataPattern" patternUnits="userSpaceOnUse" width="4" height="4" patternTransform="rotate(-45 2 2)"><path d="M -1,2 l 6,0" stroke="#ccc" stroke-width="0.7"></path></pattern></defs><rect class="background-fill" fill="white" width="850" height="788.5"></rect><g class="HeaderView"><g transform="translate(769, 16) scale(1)"><svg className="owidLogo" xmlns="http://www.w3.org/2000/svg" width="65" height="36" viewBox="0 0 65 36"  fill="none"><path fill="#002147" d="M0 0h64.8v36H0z"/><path fill="#CE261E" d="M0 33.3h64.8V36H0z"/><path fill="#fff" d="M13.796 10.575c0 .636-.106 1.226-.318 1.77a4.193 4.193 0 0 1-.894 1.404 4.084 4.084 0 0 1-1.386.93c-.54.22-1.138.33-1.794.33-.656 0-1.256-.11-1.8-.33a4.149 4.149 0 0 1-1.392-.93 4.193 4.193 0 0 1-.894-1.404A4.833 4.833 0 0 1 5 10.575c0-.636.106-1.224.318-1.764a4.18 4.18 0 0 1 .894-1.41 4.076 4.076 0 0 1 1.392-.924 4.684 4.684 0 0 1 1.8-.336c.656 0 1.254.112 1.794.336.54.224 1.002.534 1.386.93.384.392.682.86.894 1.404.212.54.318 1.128.318 1.764Zm-1.656 0c0-.476-.064-.902-.192-1.278a2.671 2.671 0 0 0-.54-.966 2.332 2.332 0 0 0-.864-.606 2.94 2.94 0 0 0-1.14-.21c-.424 0-.806.07-1.146.21-.34.14-.63.342-.87.606a2.742 2.742 0 0 0-.546.966 3.955 3.955 0 0 0-.192 1.278c0 .476.064.904.192 1.284.128.376.31.696.546.96.24.26.53.46.87.6.34.14.722.21 1.146.21.424 0 .804-.07 1.14-.21.34-.14.628-.34.864-.6.236-.264.416-.584.54-.96a4.01 4.01 0 0 0 .192-1.284ZM16.104 8.757v3.912c0 .376.086.668.258.876.176.204.438.306.786.306.256 0 .496-.056.72-.168a2.58 2.58 0 0 0 .636-.474V8.757h1.482v6.156h-.906c-.192 0-.318-.09-.378-.27l-.102-.492a4.65 4.65 0 0 1-.396.354 2.577 2.577 0 0 1-.438.27 2.35 2.35 0 0 1-.498.168 2.345 2.345 0 0 1-.57.066c-.336 0-.634-.056-.894-.168a1.821 1.821 0 0 1-.648-.486 2.157 2.157 0 0 1-.402-.738 3.233 3.233 0 0 1-.132-.948V8.757h1.482ZM21.328 14.913V8.757h.87c.152 0 .258.028.318.084.06.056.1.152.12.288l.09.744c.22-.38.478-.68.774-.9.296-.22.628-.33.996-.33.304 0 .556.07.756.21l-.192 1.11c-.012.072-.038.124-.078.156a.278.278 0 0 1-.162.042 1.01 1.01 0 0 1-.246-.042 1.646 1.646 0 0 0-.414-.042c-.308 0-.572.086-.792.258-.22.168-.406.416-.558.744v3.834h-1.482ZM27.347 6.237h1.356a.57.57 0 0 1 .348.102c.096.064.16.152.192.264l1.476 5.19c.036.128.068.268.096.42.032.148.062.306.09.474a5.968 5.968 0 0 1 .228-.894l1.704-5.19a.575.575 0 0 1 .186-.252.543.543 0 0 1 .348-.114h.474a.57.57 0 0 1 .348.102.497.497 0 0 1 .192.264l1.692 5.19c.088.256.164.54.228.852.028-.156.056-.306.084-.45.032-.144.064-.278.096-.402l1.476-5.19c.028-.1.09-.186.186-.258a.563.563 0 0 1 .348-.108h1.266l-2.694 8.676h-1.458l-1.896-5.928-.078-.246a9.504 9.504 0 0 1-.072-.282c-.024.1-.05.194-.078.282-.024.088-.048.17-.072.246l-1.914 5.928H30.04l-2.694-8.676ZM42.771 8.661c.46 0 .876.074 1.248.222.376.148.696.358.96.63s.468.604.612.996c.144.392.216.83.216 1.314 0 .488-.072.928-.216 1.32a2.85 2.85 0 0 1-.612 1.002 2.653 2.653 0 0 1-.96.636 3.35 3.35 0 0 1-1.248.222c-.46 0-.878-.074-1.254-.222a2.712 2.712 0 0 1-.966-.636 2.922 2.922 0 0 1-.618-1.002 3.807 3.807 0 0 1-.216-1.32c0-.484.072-.922.216-1.314.148-.392.354-.724.618-.996.268-.272.59-.482.966-.63a3.397 3.397 0 0 1 1.254-.222Zm0 5.202c.512 0 .89-.172 1.134-.516.248-.344.372-.848.372-1.512s-.124-1.17-.372-1.518c-.244-.348-.622-.522-1.134-.522-.52 0-.904.176-1.152.528-.248.348-.372.852-.372 1.512s.124 1.164.372 1.512c.248.344.632.516 1.152.516ZM46.723 14.913V8.757h.87c.152 0 .258.028.318.084.06.056.1.152.12.288l.09.744c.22-.38.478-.68.774-.9.296-.22.628-.33.996-.33.304 0 .556.07.756.21l-.192 1.11c-.012.072-.038.124-.078.156a.278.278 0 0 1-.162.042 1.01 1.01 0 0 1-.246-.042 1.646 1.646 0 0 0-.414-.042c-.308 0-.572.086-.792.258-.22.168-.406.416-.558.744v3.834h-1.482ZM52.96 5.997v8.916h-1.482V5.997h1.482ZM58.732 14.913c-.192 0-.318-.09-.378-.27l-.12-.594a3.68 3.68 0 0 1-.402.39c-.14.116-.292.216-.456.3-.16.084-.334.148-.522.192a2.372 2.372 0 0 1-.6.072c-.336 0-.644-.07-.924-.21a2.098 2.098 0 0 1-.726-.606 3.033 3.033 0 0 1-.468-.99 5.072 5.072 0 0 1-.162-1.344c0-.456.062-.88.186-1.272s.302-.732.534-1.02c.232-.288.51-.512.834-.672a2.384 2.384 0 0 1 1.092-.246 2.103 2.103 0 0 1 1.536.606V5.997h1.482v8.916h-.906Zm-1.974-1.086c.308 0 .57-.064.786-.192.216-.128.42-.31.612-.546v-2.76a1.452 1.452 0 0 0-.552-.432 1.597 1.597 0 0 0-.636-.126c-.224 0-.428.042-.612.126a1.21 1.21 0 0 0-.462.384c-.124.168-.22.384-.288.648-.068.26-.102.568-.102.924 0 .36.028.666.084.918.06.248.144.452.252.612.108.156.24.27.396.342.156.068.33.102.522.102ZM16.331 20.757v6.156H14.85v-6.156h1.481Zm.223-1.794a.844.844 0 0 1-.078.36.963.963 0 0 1-.21.294.995.995 0 0 1-.3.204.963.963 0 0 1-.372.072.948.948 0 0 1-.367-.072 1.018 1.018 0 0 1-.498-.498.963.963 0 0 1 0-.732.995.995 0 0 1 .205-.3.929.929 0 0 1 .293-.198.899.899 0 0 1 .738 0 .912.912 0 0 1 .3.198.943.943 0 0 1 .288.672ZM17.771 26.913v-6.156h.906c.192 0 .318.09.378.27l.102.486a2.934 2.934 0 0 1 .828-.618c.156-.076.322-.134.498-.174.176-.04.368-.06.576-.06.336 0 .634.058.894.174.26.112.476.272.648.48.176.204.308.45.396.738.092.284.138.598.138.942v3.918h-1.482v-3.918c0-.376-.088-.666-.264-.87-.172-.208-.432-.312-.78-.312-.256 0-.496.058-.72.174a2.58 2.58 0 0 0-.636.474v4.452h-1.482ZM34.22 22.575c0 .636-.106 1.22-.318 1.752-.212.532-.51.99-.894 1.374a4 4 0 0 1-1.386.894 4.87 4.87 0 0 1-1.794.318h-3.312v-8.676h3.312a4.79 4.79 0 0 1 1.794.324 4 4 0 0 1 1.386.894c.384.38.682.836.894 1.368.212.532.318 1.116.318 1.752Zm-1.65 0c0-.476-.064-.902-.192-1.278a2.68 2.68 0 0 0-.546-.96 2.332 2.332 0 0 0-.864-.606 2.94 2.94 0 0 0-1.14-.21h-1.686v6.108h1.686c.424 0 .804-.07 1.14-.21.34-.14.628-.34.864-.6a2.75 2.75 0 0 0 .546-.96 4.01 4.01 0 0 0 .192-1.284ZM39.98 26.913h-.665c-.14 0-.25-.02-.33-.06-.08-.044-.14-.13-.18-.258l-.132-.438c-.156.14-.31.264-.462.372a2.804 2.804 0 0 1-.462.264c-.16.072-.33.126-.51.162-.18.036-.38.054-.6.054-.26 0-.5-.034-.72-.102a1.618 1.618 0 0 1-.57-.318 1.448 1.448 0 0 1-.366-.522 1.852 1.852 0 0 1-.132-.726c0-.232.06-.46.18-.684.124-.228.328-.432.612-.612.284-.184.662-.336 1.134-.456.472-.12 1.058-.188 1.758-.204v-.36c0-.412-.088-.716-.264-.912-.172-.2-.424-.3-.756-.3a1.837 1.837 0 0 0-1.02.276c-.116.068-.224.13-.324.186a.664.664 0 0 1-.33.084.429.429 0 0 1-.258-.078.614.614 0 0 1-.174-.192l-.27-.474c.708-.648 1.562-.972 2.562-.972.36 0 .68.06.96.18.284.116.524.28.72.492.196.208.344.458.444.75.104.292.156.612.156.96v3.888Zm-2.88-.924c.153 0 .293-.014.42-.042.129-.028.249-.07.36-.126.117-.056.227-.124.33-.204.109-.084.217-.182.325-.294v-1.038c-.432.02-.794.058-1.086.114-.288.052-.52.12-.696.204a.923.923 0 0 0-.378.294.664.664 0 0 0-.108.366c0 .26.076.446.228.558.156.112.358.168.606.168ZM43.22 27.01c-.532 0-.942-.15-1.23-.45-.288-.305-.432-.723-.432-1.255v-3.438h-.624a.31.31 0 0 1-.21-.078c-.056-.052-.084-.13-.084-.234v-.588l.99-.162.312-1.68a.302.302 0 0 1 .108-.186.365.365 0 0 1 .222-.066h.768v1.938h1.62v1.056h-1.62v3.336c0 .192.048.342.144.45a.488.488 0 0 0 .384.162c.092 0 .168-.01.228-.03.064-.024.118-.048.162-.072.048-.024.09-.046.126-.066a.194.194 0 0 1 .108-.036.16.16 0 0 1 .108.036c.028.02.058.052.09.096l.444.72c-.216.18-.464.316-.744.408a2.77 2.77 0 0 1-.87.138ZM50.423 26.913h-.666c-.14 0-.25-.02-.33-.06-.08-.044-.14-.13-.18-.258l-.132-.438c-.156.14-.31.264-.462.372a2.804 2.804 0 0 1-.462.264c-.16.072-.33.126-.51.162-.18.036-.38.054-.6.054-.26 0-.5-.034-.72-.102a1.618 1.618 0 0 1-.57-.318 1.448 1.448 0 0 1-.366-.522 1.852 1.852 0 0 1-.132-.726c0-.232.06-.46.18-.684.124-.228.328-.432.612-.612.284-.184.662-.336 1.134-.456.472-.12 1.058-.188 1.758-.204v-.36c0-.412-.088-.716-.264-.912-.172-.2-.424-.3-.756-.3a1.837 1.837 0 0 0-1.02.276c-.116.068-.224.13-.324.186a.664.664 0 0 1-.33.084.429.429 0 0 1-.258-.078.614.614 0 0 1-.174-.192l-.27-.474c.708-.648 1.562-.972 2.562-.972.36 0 .68.06.96.18.284.116.524.28.72.492.196.208.344.458.444.75.104.292.156.612.156.96v3.888Zm-2.88-.924c.152 0 .292-.014.42-.042.128-.028.248-.07.36-.126.116-.056.226-.124.33-.204.108-.084.216-.182.324-.294v-1.038c-.432.02-.794.058-1.086.114-.288.052-.52.12-.696.204a.923.923 0 0 0-.378.294.664.664 0 0 0-.108.366c0 .26.076.446.228.558.156.112.358.168.606.168Z"/></svg></g><a href="https://ourworldindata.org/grapher/share-of-adults-defined-as-obese?tab=chart" style="font-family:&#x27;Playfair Display&#x27;, Georgia, &#x27;Times New Roman&#x27;, &#x27;Liberation Serif&#x27;, serif" target="_blank" rel="noopener"><text font-size="24.75" font-weight="500" x="16.0" y="40.0" fill="#5b5b5b"><tspan x="16" y="40.0075">Obesity in adults, 1975 to 2016</tspan></text></a><text x="16.0" y="63.9" style="font-size:14.625px;line-height:1.2" fill="#5b5b5b"><tspan x="16" y="63.9">Estimated prevalence of <tspan>obesity<tspan style="font-feature-settings:&quot;sups&quot;">¹</tspan></tspan>, based on general population surveys and statistical modeling. Obesity is a <tspan>risk</tspan></tspan><tspan x="16" y="81.4"><tspan>factor<tspan style="font-feature-settings:&quot;sups&quot;">²</tspan></tspan> for chronic complications, including cardiovascular disease, and premature death.</tspan></text></g><g style="pointer-events:none"><g class="LineChart"><defs><clipPath id="boundsClip-5"><rect x="38.135000000000005" y="90.8" width="838" height="471"></rect></clipPath></defs><rect x="16" y="100.8" width="818" height="451" fill="none"></rect><g class="DualAxisView"><g class="HorizontalAxis"><line x1="48.1" y1="531.3" x2="48.1" y2="536.3" stroke="#999" stroke-width="1"></line><line x1="702.6" y1="531.3" x2="702.6" y2="536.3" stroke="#999" stroke-width="1"></line><line x1="127.9" y1="531.3" x2="127.9" y2="536.3" stroke="#999" stroke-width="1"></line><line x1="207.8" y1="531.3" x2="207.8" y2="536.3" stroke="#999" stroke-width="1"></line><line x1="287.6" y1="531.3" x2="287.6" y2="536.3" stroke="#999" stroke-width="1"></line><line x1="367.4" y1="531.3" x2="367.4" y2="536.3" stroke="#999" stroke-width="1"></line><line x1="447.2" y1="531.3" x2="447.2" y2="536.3" stroke="#999" stroke-width="1"></line><line x1="527" y1="531.3" x2="527" y2="536.3" stroke="#999" stroke-width="1"></line><line x1="606.8" y1="531.3" x2="606.8" y2="536.3" stroke="#999" stroke-width="1"></line><text x="48.135000000000005" y="549.8" fill="#5b5b5b" text-anchor="start" font-size="13.5">1975</text><text x="702.61" y="549.8" fill="#5b5b5b" text-anchor="end" font-size="13.5">2016</text><text x="127.9" y="549.8" fill="#5b5b5b" text-anchor="middle" font-size="13.5">1980</text><text x="207.8" y="549.8" fill="#5b5b5b" text-anchor="middle" font-size="13.5">1985</text><text x="287.6" y="549.8" fill="#5b5b5b" text-anchor="middle" font-size="13.5">1990</text><text x="367.4" y="549.8" fill="#5b5b5b" text-anchor="middle" font-size="13.5">1995</text><text x="447.2" y="549.8" fill="#5b5b5b" text-anchor="middle" font-size="13.5">2000</text><text x="527" y="549.8" fill="#5b5b5b" text-anchor="middle" font-size="13.5">2005</text><text x="606.8" y="549.8" fill="#5b5b5b" text-anchor="middle" font-size="13.5">2010</text></g><g class="VerticalAxis"><text x="43.14" y="531.3" dy=".32em" text-anchor="end" fill="#5b5b5b" font-size="13.5">0%</text><text x="43.14" y="474.4" dy=".32em" text-anchor="end" fill="#5b5b5b" font-size="13.5">5%</text><text x="43.14" y="417.5" dy=".32em" text-anchor="end" fill="#5b5b5b" font-size="13.5">10%</text><text x="43.14" y="360.6" dy=".32em" text-anchor="end" fill="#5b5b5b" font-size="13.5">15%</text><text x="43.14" y="303.7" dy=".32em" text-anchor="end" fill="#5b5b5b" font-size="13.5">20%</text><text x="43.14" y="246.8" dy=".32em" text-anchor="end" fill="#5b5b5b" font-size="13.5">25%</text><text x="43.14" y="189.9" dy=".32em" text-anchor="end" fill="#5b5b5b" font-size="13.5">30%</text><text x="43.14" y="133" dy=".32em" text-anchor="end" fill="#5b5b5b" font-size="13.5">35%</text></g><g class="AxisGridLines horizontalLines"><line x1="48.14" y1="531.3" x2="702.61" y2="531.3" stroke="#999" stroke-width="1"></line><line x1="48.14" y1="474.4" x2="702.61" y2="474.4" stroke="#ddd" stroke-width="1" stroke-dasharray="3,2"></line><line x1="48.14" y1="417.5" x2="702.61" y2="417.5" stroke="#ddd" stroke-width="1" stroke-dasharray="3,2"></line><line x1="48.14" y1="360.6" x2="702.61" y2="360.6" stroke="#ddd" stroke-width="1" stroke-dasharray="3,2"></line><line x1="48.14" y1="303.7" x2="702.61" y2="303.7" stroke="#ddd" stroke-width="1" stroke-dasharray="3,2"></line><line x1="48.14" y1="246.8" x2="702.61" y2="246.8" stroke="#ddd" stroke-width="1" stroke-dasharray="3,2"></line><line x1="48.14" y1="189.9" x2="702.61" y2="189.9" stroke="#ddd" stroke-width="1" stroke-dasharray="3,2"></line><line x1="48.14" y1="133" x2="702.61" y2="133" stroke="#ddd" stroke-width="1" stroke-dasharray="3,2"></line></g></g><g clip-path="url(#boundsClip-5)"><g class="LineLabels" style="cursor:default"><g class="legendMark"><rect x="702.61" y="106.8" width="116.405" height="13.5" fill="#fff" opacity="0"></rect><text font-size="13.50" font-weight="400" x="706.6" y="118.5" fill="#2c8465"><tspan x="706.61" y="118.545">United States</tspan></text></g><g class="legendMark"><rect x="702.61" y="175.95" width="87.65" height="13.5" fill="#fff" opacity="0"></rect><text font-size="13.50" font-weight="400" x="706.6" y="187.7" fill="#be5915"><tspan x="706.61" y="187.695">Australia</tspan></text></g><g class="legendMark"><rect x="702.61" y="191.45" width="131.39" height="13.5" fill="#fff" opacity="0"></rect><text font-size="13.50" font-weight="400" x="706.6" y="203.2" fill="#c15065"><tspan x="706.61" y="203.195">United Kingdom</tspan></text></g><g class="legendMark"><rect x="702.61" y="270.75" width="68.75" height="13.5" fill="#fff" opacity="0"></rect><text font-size="13.50" font-weight="400" x="706.6" y="282.5" fill="#6d3e91"><tspan x="706.61" y="282.495">Brazil</tspan></text></g><g class="legendMark"><rect x="702.61" y="435.75" width="77.795" height="13.5" fill="#fff" opacity="0"></rect><text font-size="13.50" font-weight="400" x="706.6" y="447.5" fill="#cf0a66"><tspan x="706.61" y="447.495">Nigeria</tspan></text></g><g class="legendMark"><rect x="702.61" y="481.35" width="64.43" height="13.5" fill="#fff" opacity="0"></rect><text font-size="13.50" font-weight="400" x="706.6" y="493.1" fill="#18470f"><tspan x="706.61" y="493.095">India</tspan></text></g></g><g class="Lines"><rect x="48" y="107" width="654" height="424" fill="rgba(255,255,255,0)" opacity="0"></rect><g><path stroke-linecap="round" stroke-linejoin="round" stroke="#ddd" d="M48.1 527.9L64.1 527.9L80.1 526.7L96 526.7L112 526.7L127.9 526.7L143.9 525.6L159.9 525.6L175.8 525.6L191.8 524.5L207.8 524.5L223.7 524.5L239.7 523.3L255.7 523.3L271.6 522.2L287.6 522.2L303.5 521.1L319.5 521.1L335.5 519.9L351.4 518.8L367.4 518.8L383.4 517.6L399.3 516.5L415.3 516.5L431.2 515.4L447.2 514.2L463.2 513.1L479.1 512L495.1 510.8L511.1 509.7L527 508.5L543 507.4L558.9 505.1L574.9 504L590.9 502.8L606.8 500.6L622.8 498.3L638.8 497.2L654.7 494.9L670.7 492.6L686.6 490.3L702.6 488.1" fill="none" stroke-width="1"></path></g><g><path stroke-linecap="round" stroke-linejoin="round" stroke="#ddd" d="M48.1 522.2L64.1 522.2L80.1 521.1L96 521.1L112 519.9L127.9 519.9L143.9 518.8L159.9 517.6L175.8 517.6L191.8 516.5L207.8 515.4L223.7 514.2L239.7 513.1L255.7 512L271.6 510.8L287.6 508.5L303.5 507.4L319.5 506.3L335.5 505.1L351.4 502.8L367.4 501.7L383.4 499.4L399.3 498.3L415.3 496L431.2 494.9L447.2 492.6L463.2 490.3L479.1 488.1L495.1 485.8L511.1 483.5L527 481.2L543 477.8L558.9 475.5L574.9 472.1L590.9 468.7L606.8 465.3L622.8 461.9L638.8 458.5L654.7 455L670.7 451.6L686.6 447.1L702.6 442.5" fill="none" stroke-width="1"></path></g><g><path stroke-linecap="round" stroke-linejoin="round" stroke="#ddd" d="M48.1 480.1L64.1 476.7L80.1 474.4L96 472.1L112 468.7L127.9 466.4L143.9 463L159.9 459.6L175.8 456.2L191.8 452.8L207.8 449.4L223.7 444.8L239.7 441.4L255.7 436.8L271.6 432.3L287.6 427.7L303.5 423.2L319.5 418.6L335.5 414.1L351.4 408.4L367.4 403.8L383.4 399.3L399.3 393.6L415.3 387.9L431.2 383.4L447.2 377.7L463.2 372L479.1 366.3L495.1 360.6L511.1 354.9L527 349.2L543 342.4L558.9 336.7L574.9 329.9L590.9 324.2L606.8 317.3L622.8 310.5L638.8 304.8L654.7 298L670.7 291.2L686.6 284.3L702.6 277.5" fill="none" stroke-width="1"></path></g><g><path stroke-linecap="round" stroke-linejoin="round" stroke="#ddd" d="M48.1 411.8L64.1 409.5L80.1 406.1L96 402.7L112 400.4L127.9 397L143.9 393.6L159.9 390.2L175.8 385.6L191.8 382.2L207.8 378.8L223.7 374.2L239.7 369.7L255.7 365.1L271.6 360.6L287.6 356L303.5 350.3L319.5 344.7L335.5 339L351.4 333.3L367.4 326.4L383.4 320.8L399.3 312.8L415.3 306L431.2 299.1L447.2 292.3L463.2 284.3L479.1 277.5L495.1 270.7L511.1 263.9L527 258.2L543 251.3L558.9 245.6L574.9 238.8L590.9 233.1L606.8 227.4L622.8 220.6L638.8 213.8L654.7 207L670.7 200.1L686.6 192.2L702.6 185.3" fill="none" stroke-width="1"></path></g><g><path stroke-linecap="round" stroke-linejoin="round" stroke="#ddd" d="M48.1 398.1L64.1 393.6L80.1 390.2L96 386.8L112 382.2L127.9 377.7L143.9 373.1L159.9 368.6L175.8 362.9L191.8 358.3L207.8 351.5L223.7 345.8L239.7 339L255.7 332.1L271.6 325.3L287.6 318.5L303.5 310.5L319.5 302.5L335.5 294.6L351.4 286.6L367.4 277.5L383.4 269.5L399.3 260.4L415.3 251.3L431.2 242.2L447.2 234.3L463.2 225.2L479.1 216.1L495.1 208.1L511.1 199L527 191L543 183.1L558.9 175.1L574.9 167.1L590.9 159.2L606.8 151.2L622.8 144.4L638.8 136.4L654.7 128.4L670.7 121.6L686.6 113.6L702.6 106.8" fill="none" stroke-width="1"></path></g><g><path stroke-linecap="round" stroke-linejoin="round" stroke="#ddd" d="M48.1 417.5L64.1 415.2L80.1 411.8L96 409.5L112 406.1L127.9 403.8L143.9 400.4L159.9 397L175.8 393.6L191.8 390.2L207.8 386.8L223.7 383.4L239.7 378.8L255.7 375.4L271.6 370.8L287.6 366.3L303.5 361.7L319.5 356L335.5 350.3L351.4 344.7L367.4 339L383.4 332.1L399.3 326.4L415.3 319.6L431.2 312.8L447.2 306L463.2 300.3L479.1 293.4L495.1 286.6L511.1 279.8L527 273L543 267.3L558.9 260.4L574.9 253.6L590.9 246.8L606.8 238.8L622.8 232L638.8 225.2L654.7 218.3L670.7 210.4L686.6 202.4L702.6 195.6" fill="none" stroke-width="1"></path></g><g><path fill="none" stroke-linecap="butt" stroke-linejoin="round" stroke="#fff" stroke-width="2.5" d="M48.1 527.9L64.1 527.9L80.1 526.7L96 526.7L112 526.7L127.9 526.7L143.9 525.6L159.9 525.6L175.8 525.6L191.8 524.5L207.8 524.5L223.7 524.5L239.7 523.3L255.7 523.3L271.6 522.2L287.6 522.2L303.5 521.1L319.5 521.1L335.5 519.9L351.4 518.8L367.4 518.8L383.4 517.6L399.3 516.5L415.3 516.5L431.2 515.4L447.2 514.2L463.2 513.1L479.1 512L495.1 510.8L511.1 509.7L527 508.5L543 507.4L558.9 505.1L574.9 504L590.9 502.8L606.8 500.6L622.8 498.3L638.8 497.2L654.7 494.9L670.7 492.6L686.6 490.3L702.6 488.1"></path><polyline points="48.10,527.90 64.10,527.90 80.10,526.70 96.00,526.70 112.00,526.70 127.90,526.70 143.90,525.60 159.90,525.60 175.80,525.60 191.80,524.50 207.80,524.50 223.70,524.50 239.70,523.30 255.70,523.30 271.60,522.20 287.60,522.20 303.50,521.10 319.50,521.10 335.50,519.90 351.40,518.80 367.40,518.80 383.40,517.60 399.30,516.50 415.30,516.50 431.20,515.40 447.20,514.20 463.20,513.10 479.10,512.00 495.10,510.80 511.10,509.70 527.00,508.50 543.00,507.40 558.90,505.10 574.90,504.00 590.90,502.80 606.80,500.60 622.80,498.30 638.80,497.20 654.70,494.90 670.70,492.60 686.60,490.30 702.60,488.10" stroke-linejoin="round" stroke-width="1.5" stroke="#18470F" fill="none" stroke-linecap="butt"></polyline><g><circle cx="48.1" cy="527.9" r="1.8" fill="#18470F"></circle><circle cx="64.1" cy="527.9" r="1.8" fill="#18470F"></circle><circle cx="80.1" cy="526.7" r="1.8" fill="#18470F"></circle><circle cx="96" cy="526.7" r="1.8" fill="#18470F"></circle><circle cx="112" cy="526.7" r="1.8" fill="#18470F"></circle><circle cx="127.9" cy="526.7" r="1.8" fill="#18470F"></circle><circle cx="143.9" cy="525.6" r="1.8" fill="#18470F"></circle><circle cx="159.9" cy="525.6" r="1.8" fill="#18470F"></circle><circle cx="175.8" cy="525.6" r="1.8" fill="#18470F"></circle><circle cx="191.8" cy="524.5" r="1.8" fill="#18470F"></circle><circle cx="207.8" cy="524.5" r="1.8" fill="#18470F"></circle><circle cx="223.7" cy="524.5" r="1.8" fill="#18470F"></circle><circle cx="239.7" cy="523.3" r="1.8" fill="#18470F"></circle><circle cx="255.7" cy="523.3" r="1.8" fill="#18470F"></circle><circle cx="271.6" cy="522.2" r="1.8" fill="#18470F"></circle><circle cx="287.6" cy="522.2" r="1.8" fill="#18470F"></circle><circle cx="303.5" cy="521.1" r="1.8" fill="#18470F"></circle><circle cx="319.5" cy="521.1" r="1.8" fill="#18470F"></circle><circle cx="335.5" cy="519.9" r="1.8" fill="#18470F"></circle><circle cx="351.4" cy="518.8" r="1.8" fill="#18470F"></circle><circle cx="367.4" cy="518.8" r="1.8" fill="#18470F"></circle><circle cx="383.4" cy="517.6" r="1.8" fill="#18470F"></circle><circle cx="399.3" cy="516.5" r="1.8" fill="#18470F"></circle><circle cx="415.3" cy="516.5" r="1.8" fill="#18470F"></circle><circle cx="431.2" cy="515.4" r="1.8" fill="#18470F"></circle><circle cx="447.2" cy="514.2" r="1.8" fill="#18470F"></circle><circle cx="463.2" cy="513.1" r="1.8" fill="#18470F"></circle><circle cx="479.1" cy="512" r="1.8" fill="#18470F"></circle><circle cx="495.1" cy="510.8" r="1.8" fill="#18470F"></circle><circle cx="511.1" cy="509.7" r="1.8" fill="#18470F"></circle><circle cx="527" cy="508.5" r="1.8" fill="#18470F"></circle><circle cx="543" cy="507.4" r="1.8" fill="#18470F"></circle><circle cx="558.9" cy="505.1" r="1.8" fill="#18470F"></circle><circle cx="574.9" cy="504" r="1.8" fill="#18470F"></circle><circle cx="590.9" cy="502.8" r="1.8" fill="#18470F"></circle><circle cx="606.8" cy="500.6" r="1.8" fill="#18470F"></circle><circle cx="622.8" cy="498.3" r="1.8" fill="#18470F"></circle><circle cx="638.8" cy="497.2" r="1.8" fill="#18470F"></circle><circle cx="654.7" cy="494.9" r="1.8" fill="#18470F"></circle><circle cx="670.7" cy="492.6" r="1.8" fill="#18470F"></circle><circle cx="686.6" cy="490.3" r="1.8" fill="#18470F"></circle><circle cx="702.6" cy="488.1" r="1.8" fill="#18470F"></circle></g></g><g><path fill="none" stroke-linecap="butt" stroke-linejoin="round" stroke="#fff" stroke-width="2.5" d="M48.1 522.2L64.1 522.2L80.1 521.1L96 521.1L112 519.9L127.9 519.9L143.9 518.8L159.9 517.6L175.8 517.6L191.8 516.5L207.8 515.4L223.7 514.2L239.7 513.1L255.7 512L271.6 510.8L287.6 508.5L303.5 507.4L319.5 506.3L335.5 505.1L351.4 502.8L367.4 501.7L383.4 499.4L399.3 498.3L415.3 496L431.2 494.9L447.2 492.6L463.2 490.3L479.1 488.1L495.1 485.8L511.1 483.5L527 481.2L543 477.8L558.9 475.5L574.9 472.1L590.9 468.7L606.8 465.3L622.8 461.9L638.8 458.5L654.7 455L670.7 451.6L686.6 447.1L702.6 442.5"></path><polyline points="48.10,522.20 64.10,522.20 80.10,521.10 96.00,521.10 112.00,519.90 127.90,519.90 143.90,518.80 159.90,517.60 175.80,517.60 191.80,516.50 207.80,515.40 223.70,514.20 239.70,513.10 255.70,512.00 271.60,510.80 287.60,508.50 303.50,507.40 319.50,506.30 335.50,505.10 351.40,502.80 367.40,501.70 383.40,499.40 399.30,498.30 415.30,496.00 431.20,494.90 447.20,492.60 463.20,490.30 479.10,488.10 495.10,485.80 511.10,483.50 527.00,481.20 543.00,477.80 558.90,475.50 574.90,472.10 590.90,468.70 606.80,465.30 622.80,461.90 638.80,458.50 654.70,455.00 670.70,451.60 686.60,447.10 702.60,442.50" stroke-linejoin="round" stroke-width="1.5" stroke="#CF0A66" fill="none" stroke-linecap="butt"></polyline><g><circle cx="48.1" cy="522.2" r="1.8" fill="#CF0A66"></circle><circle cx="64.1" cy="522.2" r="1.8" fill="#CF0A66"></circle><circle cx="80.1" cy="521.1" r="1.8" fill="#CF0A66"></circle><circle cx="96" cy="521.1" r="1.8" fill="#CF0A66"></circle><circle cx="112" cy="519.9" r="1.8" fill="#CF0A66"></circle><circle cx="127.9" cy="519.9" r="1.8" fill="#CF0A66"></circle><circle cx="143.9" cy="518.8" r="1.8" fill="#CF0A66"></circle><circle cx="159.9" cy="517.6" r="1.8" fill="#CF0A66"></circle><circle cx="175.8" cy="517.6" r="1.8" fill="#CF0A66"></circle><circle cx="191.8" cy="516.5" r="1.8" fill="#CF0A66"></circle><circle cx="207.8" cy="515.4" r="1.8" fill="#CF0A66"></circle><circle cx="223.7" cy="514.2" r="1.8" fill="#CF0A66"></circle><circle cx="239.7" cy="513.1" r="1.8" fill="#CF0A66"></circle><circle cx="255.7" cy="512" r="1.8" fill="#CF0A66"></circle><circle cx="271.6" cy="510.8" r="1.8" fill="#CF0A66"></circle><circle cx="287.6" cy="508.5" r="1.8" fill="#CF0A66"></circle><circle cx="303.5" cy="507.4" r="1.8" fill="#CF0A66"></circle><circle cx="319.5" cy="506.3" r="1.8" fill="#CF0A66"></circle><circle cx="335.5" cy="505.1" r="1.8" fill="#CF0A66"></circle><circle cx="351.4" cy="502.8" r="1.8" fill="#CF0A66"></circle><circle cx="367.4" cy="501.7" r="1.8" fill="#CF0A66"></circle><circle cx="383.4" cy="499.4" r="1.8" fill="#CF0A66"></circle><circle cx="399.3" cy="498.3" r="1.8" fill="#CF0A66"></circle><circle cx="415.3" cy="496" r="1.8" fill="#CF0A66"></circle><circle cx="431.2" cy="494.9" r="1.8" fill="#CF0A66"></circle><circle cx="447.2" cy="492.6" r="1.8" fill="#CF0A66"></circle><circle cx="463.2" cy="490.3" r="1.8" fill="#CF0A66"></circle><circle cx="479.1" cy="488.1" r="1.8" fill="#CF0A66"></circle><circle cx="495.1" cy="485.8" r="1.8" fill="#CF0A66"></circle><circle cx="511.1" cy="483.5" r="1.8" fill="#CF0A66"></circle><circle cx="527" cy="481.2" r="1.8" fill="#CF0A66"></circle><circle cx="543" cy="477.8" r="1.8" fill="#CF0A66"></circle><circle cx="558.9" cy="475.5" r="1.8" fill="#CF0A66"></circle><circle cx="574.9" cy="472.1" r="1.8" fill="#CF0A66"></circle><circle cx="590.9" cy="468.7" r="1.8" fill="#CF0A66"></circle><circle cx="606.8" cy="465.3" r="1.8" fill="#CF0A66"></circle><circle cx="622.8" cy="461.9" r="1.8" fill="#CF0A66"></circle><circle cx="638.8" cy="458.5" r="1.8" fill="#CF0A66"></circle><circle cx="654.7" cy="455" r="1.8" fill="#CF0A66"></circle><circle cx="670.7" cy="451.6" r="1.8" fill="#CF0A66"></circle><circle cx="686.6" cy="447.1" r="1.8" fill="#CF0A66"></circle><circle cx="702.6" cy="442.5" r="1.8" fill="#CF0A66"></circle></g></g><g><path fill="none" stroke-linecap="butt" stroke-linejoin="round" stroke="#fff" stroke-width="2.5" d="M48.1 480.1L64.1 476.7L80.1 474.4L96 472.1L112 468.7L127.9 466.4L143.9 463L159.9 459.6L175.8 456.2L191.8 452.8L207.8 449.4L223.7 444.8L239.7 441.4L255.7 436.8L271.6 432.3L287.6 427.7L303.5 423.2L319.5 418.6L335.5 414.1L351.4 408.4L367.4 403.8L383.4 399.3L399.3 393.6L415.3 387.9L431.2 383.4L447.2 377.7L463.2 372L479.1 366.3L495.1 360.6L511.1 354.9L527 349.2L543 342.4L558.9 336.7L574.9 329.9L590.9 324.2L606.8 317.3L622.8 310.5L638.8 304.8L654.7 298L670.7 291.2L686.6 284.3L702.6 277.5"></path><polyline points="48.10,480.10 64.10,476.70 80.10,474.40 96.00,472.10 112.00,468.70 127.90,466.40 143.90,463.00 159.90,459.60 175.80,456.20 191.80,452.80 207.80,449.40 223.70,444.80 239.70,441.40 255.70,436.80 271.60,432.30 287.60,427.70 303.50,423.20 319.50,418.60 335.50,414.10 351.40,408.40 367.40,403.80 383.40,399.30 399.30,393.60 415.30,387.90 431.20,383.40 447.20,377.70 463.20,372.00 479.10,366.30 495.10,360.60 511.10,354.90 527.00,349.20 543.00,342.40 558.90,336.70 574.90,329.90 590.90,324.20 606.80,317.30 622.80,310.50 638.80,304.80 654.70,298.00 670.70,291.20 686.60,284.30 702.60,277.50" stroke-linejoin="round" stroke-width="1.5" stroke="#6D3E91" fill="none" stroke-linecap="butt"></polyline><g><circle cx="48.1" cy="480.1" r="1.8" fill="#6D3E91"></circle><circle cx="64.1" cy="476.7" r="1.8" fill="#6D3E91"></circle><circle cx="80.1" cy="474.4" r="1.8" fill="#6D3E91"></circle><circle cx="96" cy="472.1" r="1.8" fill="#6D3E91"></circle><circle cx="112" cy="468.7" r="1.8" fill="#6D3E91"></circle><circle cx="127.9" cy="466.4" r="1.8" fill="#6D3E91"></circle><circle cx="143.9" cy="463" r="1.8" fill="#6D3E91"></circle><circle cx="159.9" cy="459.6" r="1.8" fill="#6D3E91"></circle><circle cx="175.8" cy="456.2" r="1.8" fill="#6D3E91"></circle><circle cx="191.8" cy="452.8" r="1.8" fill="#6D3E91"></circle><circle cx="207.8" cy="449.4" r="1.8" fill="#6D3E91"></circle><circle cx="223.7" cy="444.8" r="1.8" fill="#6D3E91"></circle><circle cx="239.7" cy="441.4" r="1.8" fill="#6D3E91"></circle><circle cx="255.7" cy="436.8" r="1.8" fill="#6D3E91"></circle><circle cx="271.6" cy="432.3" r="1.8" fill="#6D3E91"></circle><circle cx="287.6" cy="427.7" r="1.8" fill="#6D3E91"></circle><circle cx="303.5" cy="423.2" r="1.8" fill="#6D3E91"></circle><circle cx="319.5" cy="418.6" r="1.8" fill="#6D3E91"></circle><circle cx="335.5" cy="414.1" r="1.8" fill="#6D3E91"></circle><circle cx="351.4" cy="408.4" r="1.8" fill="#6D3E91"></circle><circle cx="367.4" cy="403.8" r="1.8" fill="#6D3E91"></circle><circle cx="383.4" cy="399.3" r="1.8" fill="#6D3E91"></circle><circle cx="399.3" cy="393.6" r="1.8" fill="#6D3E91"></circle><circle cx="415.3" cy="387.9" r="1.8" fill="#6D3E91"></circle><circle cx="431.2" cy="383.4" r="1.8" fill="#6D3E91"></circle><circle cx="447.2" cy="377.7" r="1.8" fill="#6D3E91"></circle><circle cx="463.2" cy="372" r="1.8" fill="#6D3E91"></circle><circle cx="479.1" cy="366.3" r="1.8" fill="#6D3E91"></circle><circle cx="495.1" cy="360.6" r="1.8" fill="#6D3E91"></circle><circle cx="511.1" cy="354.9" r="1.8" fill="#6D3E91"></circle><circle cx="527" cy="349.2" r="1.8" fill="#6D3E91"></circle><circle cx="543" cy="342.4" r="1.8" fill="#6D3E91"></circle><circle cx="558.9" cy="336.7" r="1.8" fill="#6D3E91"></circle><circle cx="574.9" cy="329.9" r="1.8" fill="#6D3E91"></circle><circle cx="590.9" cy="324.2" r="1.8" fill="#6D3E91"></circle><circle cx="606.8" cy="317.3" r="1.8" fill="#6D3E91"></circle><circle cx="622.8" cy="310.5" r="1.8" fill="#6D3E91"></circle><circle cx="638.8" cy="304.8" r="1.8" fill="#6D3E91"></circle><circle cx="654.7" cy="298" r="1.8" fill="#6D3E91"></circle><circle cx="670.7" cy="291.2" r="1.8" fill="#6D3E91"></circle><circle cx="686.6" cy="284.3" r="1.8" fill="#6D3E91"></circle><circle cx="702.6" cy="277.5" r="1.8" fill="#6D3E91"></circle></g></g><g><path fill="none" stroke-linecap="butt" stroke-linejoin="round" stroke="#fff" stroke-width="2.5" d="M48.1 411.8L64.1 409.5L80.1 406.1L96 402.7L112 400.4L127.9 397L143.9 393.6L159.9 390.2L175.8 385.6L191.8 382.2L207.8 378.8L223.7 374.2L239.7 369.7L255.7 365.1L271.6 360.6L287.6 356L303.5 350.3L319.5 344.7L335.5 339L351.4 333.3L367.4 326.4L383.4 320.8L399.3 312.8L415.3 306L431.2 299.1L447.2 292.3L463.2 284.3L479.1 277.5L495.1 270.7L511.1 263.9L527 258.2L543 251.3L558.9 245.6L574.9 238.8L590.9 233.1L606.8 227.4L622.8 220.6L638.8 213.8L654.7 207L670.7 200.1L686.6 192.2L702.6 185.3"></path><polyline points="48.10,411.80 64.10,409.50 80.10,406.10 96.00,402.70 112.00,400.40 127.90,397.00 143.90,393.60 159.90,390.20 175.80,385.60 191.80,382.20 207.80,378.80 223.70,374.20 239.70,369.70 255.70,365.10 271.60,360.60 287.60,356.00 303.50,350.30 319.50,344.70 335.50,339.00 351.40,333.30 367.40,326.40 383.40,320.80 399.30,312.80 415.30,306.00 431.20,299.10 447.20,292.30 463.20,284.30 479.10,277.50 495.10,270.70 511.10,263.90 527.00,258.20 543.00,251.30 558.90,245.60 574.90,238.80 590.90,233.10 606.80,227.40 622.80,220.60 638.80,213.80 654.70,207.00 670.70,200.10 686.60,192.20 702.60,185.30" stroke-linejoin="round" stroke-width="1.5" stroke="#BE5915" fill="none" stroke-linecap="butt"></polyline><g><circle cx="48.1" cy="411.8" r="1.8" fill="#BE5915"></circle><circle cx="64.1" cy="409.5" r="1.8" fill="#BE5915"></circle><circle cx="80.1" cy="406.1" r="1.8" fill="#BE5915"></circle><circle cx="96" cy="402.7" r="1.8" fill="#BE5915"></circle><circle cx="112" cy="400.4" r="1.8" fill="#BE5915"></circle><circle cx="127.9" cy="397" r="1.8" fill="#BE5915"></circle><circle cx="143.9" cy="393.6" r="1.8" fill="#BE5915"></circle><circle cx="159.9" cy="390.2" r="1.8" fill="#BE5915"></circle><circle cx="175.8" cy="385.6" r="1.8" fill="#BE5915"></circle><circle cx="191.8" cy="382.2" r="1.8" fill="#BE5915"></circle><circle cx="207.8" cy="378.8" r="1.8" fill="#BE5915"></circle><circle cx="223.7" cy="374.2" r="1.8" fill="#BE5915"></circle><circle cx="239.7" cy="369.7" r="1.8" fill="#BE5915"></circle><circle cx="255.7" cy="365.1" r="1.8" fill="#BE5915"></circle><circle cx="271.6" cy="360.6" r="1.8" fill="#BE5915"></circle><circle cx="287.6" cy="356" r="1.8" fill="#BE5915"></circle><circle cx="303.5" cy="350.3" r="1.8" fill="#BE5915"></circle><circle cx="319.5" cy="344.7" r="1.8" fill="#BE5915"></circle><circle cx="335.5" cy="339" r="1.8" fill="#BE5915"></circle><circle cx="351.4" cy="333.3" r="1.8" fill="#BE5915"></circle><circle cx="367.4" cy="326.4" r="1.8" fill="#BE5915"></circle><circle cx="383.4" cy="320.8" r="1.8" fill="#BE5915"></circle><circle cx="399.3" cy="312.8" r="1.8" fill="#BE5915"></circle><circle cx="415.3" cy="306" r="1.8" fill="#BE5915"></circle><circle cx="431.2" cy="299.1" r="1.8" fill="#BE5915"></circle><circle cx="447.2" cy="292.3" r="1.8" fill="#BE5915"></circle><circle cx="463.2" cy="284.3" r="1.8" fill="#BE5915"></circle><circle cx="479.1" cy="277.5" r="1.8" fill="#BE5915"></circle><circle cx="495.1" cy="270.7" r="1.8" fill="#BE5915"></circle><circle cx="511.1" cy="263.9" r="1.8" fill="#BE5915"></circle><circle cx="527" cy="258.2" r="1.8" fill="#BE5915"></circle><circle cx="543" cy="251.3" r="1.8" fill="#BE5915"></circle><circle cx="558.9" cy="245.6" r="1.8" fill="#BE5915"></circle><circle cx="574.9" cy="238.8" r="1.8" fill="#BE5915"></circle><circle cx="590.9" cy="233.1" r="1.8" fill="#BE5915"></circle><circle cx="606.8" cy="227.4" r="1.8" fill="#BE5915"></circle><circle cx="622.8" cy="220.6" r="1.8" fill="#BE5915"></circle><circle cx="638.8" cy="213.8" r="1.8" fill="#BE5915"></circle><circle cx="654.7" cy="207" r="1.8" fill="#BE5915"></circle><circle cx="670.7" cy="200.1" r="1.8" fill="#BE5915"></circle><circle cx="686.6" cy="192.2" r="1.8" fill="#BE5915"></circle><circle cx="702.6" cy="185.3" r="1.8" fill="#BE5915"></circle></g></g><g><path fill="none" stroke-linecap="butt" stroke-linejoin="round" stroke="#fff" stroke-width="2.5" d="M48.1 398.1L64.1 393.6L80.1 390.2L96 386.8L112 382.2L127.9 377.7L143.9 373.1L159.9 368.6L175.8 362.9L191.8 358.3L207.8 351.5L223.7 345.8L239.7 339L255.7 332.1L271.6 325.3L287.6 318.5L303.5 310.5L319.5 302.5L335.5 294.6L351.4 286.6L367.4 277.5L383.4 269.5L399.3 260.4L415.3 251.3L431.2 242.2L447.2 234.3L463.2 225.2L479.1 216.1L495.1 208.1L511.1 199L527 191L543 183.1L558.9 175.1L574.9 167.1L590.9 159.2L606.8 151.2L622.8 144.4L638.8 136.4L654.7 128.4L670.7 121.6L686.6 113.6L702.6 106.8"></path><polyline points="48.10,398.10 64.10,393.60 80.10,390.20 96.00,386.80 112.00,382.20 127.90,377.70 143.90,373.10 159.90,368.60 175.80,362.90 191.80,358.30 207.80,351.50 223.70,345.80 239.70,339.00 255.70,332.10 271.60,325.30 287.60,318.50 303.50,310.50 319.50,302.50 335.50,294.60 351.40,286.60 367.40,277.50 383.40,269.50 399.30,260.40 415.30,251.30 431.20,242.20 447.20,234.30 463.20,225.20 479.10,216.10 495.10,208.10 511.10,199.00 527.00,191.00 543.00,183.10 558.90,175.10 574.90,167.10 590.90,159.20 606.80,151.20 622.80,144.40 638.80,136.40 654.70,128.40 670.70,121.60 686.60,113.60 702.60,106.80" stroke-linejoin="round" stroke-width="1.5" stroke="#2C8465" fill="none" stroke-linecap="butt"></polyline><g><circle cx="48.1" cy="398.1" r="1.8" fill="#2C8465"></circle><circle cx="64.1" cy="393.6" r="1.8" fill="#2C8465"></circle><circle cx="80.1" cy="390.2" r="1.8" fill="#2C8465"></circle><circle cx="96" cy="386.8" r="1.8" fill="#2C8465"></circle><circle cx="112" cy="382.2" r="1.8" fill="#2C8465"></circle><circle cx="127.9" cy="377.7" r="1.8" fill="#2C8465"></circle><circle cx="143.9" cy="373.1" r="1.8" fill="#2C8465"></circle><circle cx="159.9" cy="368.6" r="1.8" fill="#2C8465"></circle><circle cx="175.8" cy="362.9" r="1.8" fill="#2C8465"></circle><circle cx="191.8" cy="358.3" r="1.8" fill="#2C8465"></circle><circle cx="207.8" cy="351.5" r="1.8" fill="#2C8465"></circle><circle cx="223.7" cy="345.8" r="1.8" fill="#2C8465"></circle><circle cx="239.7" cy="339" r="1.8" fill="#2C8465"></circle><circle cx="255.7" cy="332.1" r="1.8" fill="#2C8465"></circle><circle cx="271.6" cy="325.3" r="1.8" fill="#2C8465"></circle><circle cx="287.6" cy="318.5" r="1.8" fill="#2C8465"></circle><circle cx="303.5" cy="310.5" r="1.8" fill="#2C8465"></circle><circle cx="319.5" cy="302.5" r="1.8" fill="#2C8465"></circle><circle cx="335.5" cy="294.6" r="1.8" fill="#2C8465"></circle><circle cx="351.4" cy="286.6" r="1.8" fill="#2C8465"></circle><circle cx="367.4" cy="277.5" r="1.8" fill="#2C8465"></circle><circle cx="383.4" cy="269.5" r="1.8" fill="#2C8465"></circle><circle cx="399.3" cy="260.4" r="1.8" fill="#2C8465"></circle><circle cx="415.3" cy="251.3" r="1.8" fill="#2C8465"></circle><circle cx="431.2" cy="242.2" r="1.8" fill="#2C8465"></circle><circle cx="447.2" cy="234.3" r="1.8" fill="#2C8465"></circle><circle cx="463.2" cy="225.2" r="1.8" fill="#2C8465"></circle><circle cx="479.1" cy="216.1" r="1.8" fill="#2C8465"></circle><circle cx="495.1" cy="208.1" r="1.8" fill="#2C8465"></circle><circle cx="511.1" cy="199" r="1.8" fill="#2C8465"></circle><circle cx="527" cy="191" r="1.8" fill="#2C8465"></circle><circle cx="543" cy="183.1" r="1.8" fill="#2C8465"></circle><circle cx="558.9" cy="175.1" r="1.8" fill="#2C8465"></circle><circle cx="574.9" cy="167.1" r="1.8" fill="#2C8465"></circle><circle cx="590.9" cy="159.2" r="1.8" fill="#2C8465"></circle><circle cx="606.8" cy="151.2" r="1.8" fill="#2C8465"></circle><circle cx="622.8" cy="144.4" r="1.8" fill="#2C8465"></circle><circle cx="638.8" cy="136.4" r="1.8" fill="#2C8465"></circle><circle cx="654.7" cy="128.4" r="1.8" fill="#2C8465"></circle><circle cx="670.7" cy="121.6" r="1.8" fill="#2C8465"></circle><circle cx="686.6" cy="113.6" r="1.8" fill="#2C8465"></circle><circle cx="702.6" cy="106.8" r="1.8" fill="#2C8465"></circle></g></g><g><path fill="none" stroke-linecap="butt" stroke-linejoin="round" stroke="#fff" stroke-width="2.5" d="M48.1 417.5L64.1 415.2L80.1 411.8L96 409.5L112 406.1L127.9 403.8L143.9 400.4L159.9 397L175.8 393.6L191.8 390.2L207.8 386.8L223.7 383.4L239.7 378.8L255.7 375.4L271.6 370.8L287.6 366.3L303.5 361.7L319.5 356L335.5 350.3L351.4 344.7L367.4 339L383.4 332.1L399.3 326.4L415.3 319.6L431.2 312.8L447.2 306L463.2 300.3L479.1 293.4L495.1 286.6L511.1 279.8L527 273L543 267.3L558.9 260.4L574.9 253.6L590.9 246.8L606.8 238.8L622.8 232L638.8 225.2L654.7 218.3L670.7 210.4L686.6 202.4L702.6 195.6"></path><polyline points="48.10,417.50 64.10,415.20 80.10,411.80 96.00,409.50 112.00,406.10 127.90,403.80 143.90,400.40 159.90,397.00 175.80,393.60 191.80,390.20 207.80,386.80 223.70,383.40 239.70,378.80 255.70,375.40 271.60,370.80 287.60,366.30 303.50,361.70 319.50,356.00 335.50,350.30 351.40,344.70 367.40,339.00 383.40,332.10 399.30,326.40 415.30,319.60 431.20,312.80 447.20,306.00 463.20,300.30 479.10,293.40 495.10,286.60 511.10,279.80 527.00,273.00 543.00,267.30 558.90,260.40 574.90,253.60 590.90,246.80 606.80,238.80 622.80,232.00 638.80,225.20 654.70,218.30 670.70,210.40 686.60,202.40 702.60,195.60" stroke-linejoin="round" stroke-width="1.5" stroke="#C15065" fill="none" stroke-linecap="butt"></polyline><g><circle cx="48.1" cy="417.5" r="1.8" fill="#C15065"></circle><circle cx="64.1" cy="415.2" r="1.8" fill="#C15065"></circle><circle cx="80.1" cy="411.8" r="1.8" fill="#C15065"></circle><circle cx="96" cy="409.5" r="1.8" fill="#C15065"></circle><circle cx="112" cy="406.1" r="1.8" fill="#C15065"></circle><circle cx="127.9" cy="403.8" r="1.8" fill="#C15065"></circle><circle cx="143.9" cy="400.4" r="1.8" fill="#C15065"></circle><circle cx="159.9" cy="397" r="1.8" fill="#C15065"></circle><circle cx="175.8" cy="393.6" r="1.8" fill="#C15065"></circle><circle cx="191.8" cy="390.2" r="1.8" fill="#C15065"></circle><circle cx="207.8" cy="386.8" r="1.8" fill="#C15065"></circle><circle cx="223.7" cy="383.4" r="1.8" fill="#C15065"></circle><circle cx="239.7" cy="378.8" r="1.8" fill="#C15065"></circle><circle cx="255.7" cy="375.4" r="1.8" fill="#C15065"></circle><circle cx="271.6" cy="370.8" r="1.8" fill="#C15065"></circle><circle cx="287.6" cy="366.3" r="1.8" fill="#C15065"></circle><circle cx="303.5" cy="361.7" r="1.8" fill="#C15065"></circle><circle cx="319.5" cy="356" r="1.8" fill="#C15065"></circle><circle cx="335.5" cy="350.3" r="1.8" fill="#C15065"></circle><circle cx="351.4" cy="344.7" r="1.8" fill="#C15065"></circle><circle cx="367.4" cy="339" r="1.8" fill="#C15065"></circle><circle cx="383.4" cy="332.1" r="1.8" fill="#C15065"></circle><circle cx="399.3" cy="326.4" r="1.8" fill="#C15065"></circle><circle cx="415.3" cy="319.6" r="1.8" fill="#C15065"></circle><circle cx="431.2" cy="312.8" r="1.8" fill="#C15065"></circle><circle cx="447.2" cy="306" r="1.8" fill="#C15065"></circle><circle cx="463.2" cy="300.3" r="1.8" fill="#C15065"></circle><circle cx="479.1" cy="293.4" r="1.8" fill="#C15065"></circle><circle cx="495.1" cy="286.6" r="1.8" fill="#C15065"></circle><circle cx="511.1" cy="279.8" r="1.8" fill="#C15065"></circle><circle cx="527" cy="273" r="1.8" fill="#C15065"></circle><circle cx="543" cy="267.3" r="1.8" fill="#C15065"></circle><circle cx="558.9" cy="260.4" r="1.8" fill="#C15065"></circle><circle cx="574.9" cy="253.6" r="1.8" fill="#C15065"></circle><circle cx="590.9" cy="246.8" r="1.8" fill="#C15065"></circle><circle cx="606.8" cy="238.8" r="1.8" fill="#C15065"></circle><circle cx="622.8" cy="232" r="1.8" fill="#C15065"></circle><circle cx="638.8" cy="225.2" r="1.8" fill="#C15065"></circle><circle cx="654.7" cy="218.3" r="1.8" fill="#C15065"></circle><circle cx="670.7" cy="210.4" r="1.8" fill="#C15065"></circle><circle cx="686.6" cy="202.4" r="1.8" fill="#C15065"></circle><circle cx="702.6" cy="195.6" r="1.8" fill="#C15065"></circle></g></g></g></g></g></g><g class="SourcesFooter" style="fill:#5b5b5b"><text x="16.0" y="580.9" style="font-size:13.5px;line-height:1.2"><tspan x="16" y="580.9"><tspan style="font-weight:700">Data source:</tspan> WHO, Global Health Observatory (2022)</tspan></text><text font-size="13.50" x="613.8" y="580.9"><tspan x="613.815" y="580.895"><a target="_blank" style="fill: #5b5b5b;  text-decoration: underline;" href="https://ourworldindata.org/obesity">OurWorldInData.org/obesity</a> | <a target="_blank" style="fill: #5b5b5b;  text-decoration: underline;" href="https://creativecommons.org/licenses/by/4.0/">CC BY</a></tspan></text></g><line x1="16" y1="600" x2="834" y2="600" stroke="#e7e7e7"></line><g transform="translate(15, 616)"><text x="0.0" y="12.0" style="font-size:12.375px;fill:#5b5b5b;line-height:1.2"><tspan x="0" y="12.0"><tspan style="font-weight:700">1.</tspan> <tspan style="font-weight:700">Obesity</tspan>: Obesity is defined as having a body-mass index (BMI) above 30. A person’s BMI is calculated as their weight (in kilograms) divided by</tspan><tspan x="0" y="26.9">their height (in meters) squared. For example, someone measuring 1.60 meters and weighing 64 kilograms has a BMI of 64 / 1.6² = 25. Obesity</tspan><tspan x="0" y="41.7">increases the mortality risk of many conditions, including cardiovascular disease, gastrointestinal disorders, type 2 diabetes, joint and muscular</tspan><tspan x="0" y="56.6">disorders, respiratory problems, and psychological issues.</tspan></text><text x="0.0" y="79.4" style="font-size:12.375px;fill:#5b5b5b;line-height:1.2"><tspan x="0" y="79.4"><tspan style="font-weight:700">2.</tspan> <tspan style="font-weight:700">Risk factor</tspan>: A risk factor is a condition or behavior that increases the likelihood of developing a given disease or injury, or an outcome such as</tspan><tspan x="0" y="94.3">death. The impact of a risk factor is estimated in different ways. For example, a common approach is to estimate the number of deaths that would</tspan><tspan x="0" y="109.1">occur if the risk factor was absent. Risk factors are not mutually exclusive: people can be exposed to multiple risk factors, which contribute to their</tspan><tspan x="0" y="124.0">disease or death. Because of this, the number of deaths caused by each risk factor is typically estimated separately. 📃 Read more: How do</tspan><tspan x="0" y="138.8">researchers estimate the death toll caused by each risk factor, whether it’s smoking, obesity or air pollution? 📃 Read more: Why isn’t it possible to</tspan><tspan x="0" y="153.7">sum up the death toll from different risk factors?</tspan></text></g></svg>